<mxfile host="app.diagrams.net" agent="Mozilla/5.0 (X11; Linux x86_64) AppleWebKit/537.36 (KHTML, like Gecko) Chrome/134.0.0.0 Safari/537.36" version="27.0.2">
  <diagram id="-Tr3lX1bvUTWqXh7uTsu" name="Page-1">
    <mxGraphModel dx="1360" dy="913" grid="1" gridSize="5" guides="1" tooltips="1" connect="1" arrows="1" fold="1" page="1" pageScale="1" pageWidth="1169" pageHeight="827" math="0" shadow="0">
      <root>
        <mxCell id="0" />
        <mxCell id="1" parent="0" />
        <mxCell id="e784b_Fykw6awiZgi49o-5" style="edgeStyle=orthogonalEdgeStyle;rounded=0;orthogonalLoop=1;jettySize=auto;html=1;exitX=1;exitY=0.5;exitDx=0;exitDy=0;entryX=0.017;entryY=0.54;entryDx=0;entryDy=0;entryPerimeter=0;endArrow=none;startFill=0;" edge="1" parent="1" source="PAzl1V93zPWZ2kn87MjU-9" target="PAzl1V93zPWZ2kn87MjU-6">
          <mxGeometry relative="1" as="geometry">
            <Array as="points">
              <mxPoint x="983" y="712" />
            </Array>
          </mxGeometry>
        </mxCell>
        <mxCell id="PAzl1V93zPWZ2kn87MjU-41" style="edgeStyle=orthogonalEdgeStyle;rounded=0;orthogonalLoop=1;jettySize=auto;html=1;exitX=0;exitY=0.75;exitDx=0;exitDy=0;entryX=1.014;entryY=0.192;entryDx=0;entryDy=0;entryPerimeter=0;endArrow=none;startFill=0;" parent="1" edge="1">
          <mxGeometry relative="1" as="geometry">
            <mxPoint x="520" y="470.04" as="sourcePoint" />
            <mxPoint x="163" y="469.99999999999994" as="targetPoint" />
          </mxGeometry>
        </mxCell>
        <mxCell id="PAzl1V93zPWZ2kn87MjU-17" style="edgeStyle=orthogonalEdgeStyle;rounded=0;orthogonalLoop=1;jettySize=auto;html=1;exitX=1;exitY=0.5;exitDx=0;exitDy=0;entryX=0;entryY=0.5;entryDx=0;entryDy=0;endArrow=none;startFill=0;" parent="1" source="PAzl1V93zPWZ2kn87MjU-1" target="PAzl1V93zPWZ2kn87MjU-3" edge="1">
          <mxGeometry relative="1" as="geometry" />
        </mxCell>
        <mxCell id="PAzl1V93zPWZ2kn87MjU-1" value="&lt;div style=&quot;line-height: 130%;&quot;&gt;&lt;font style=&quot;font-size: 13px; line-height: 130%;&quot;&gt;CAMPIONAT_EUROPEAN&lt;/font&gt;&lt;div&gt;&lt;font style=&quot;font-size: 13px; line-height: 130%;&quot;&gt;id_ediție_euro#&lt;/font&gt;&lt;/div&gt;&lt;div&gt;&lt;font style=&quot;font-size: 13px; line-height: 130%;&quot;&gt;țară_gazdă&lt;/font&gt;&lt;/div&gt;&lt;div&gt;&lt;font style=&quot;font-size: 13px; line-height: 130%;&quot;&gt;dată_început&lt;/font&gt;&lt;/div&gt;&lt;div&gt;&lt;font style=&quot;font-size: 13px; line-height: 130%;&quot;&gt;dată_sfărșit&lt;/font&gt;&lt;/div&gt;&lt;/div&gt;" style="rounded=0;whiteSpace=wrap;html=1;align=left;fontFamily=Georgia;spacingBottom=4;spacingLeft=4;" parent="1" vertex="1">
          <mxGeometry x="20" y="10" width="165" height="110" as="geometry" />
        </mxCell>
        <mxCell id="PAzl1V93zPWZ2kn87MjU-22" style="edgeStyle=orthogonalEdgeStyle;rounded=0;orthogonalLoop=1;jettySize=auto;html=1;entryX=0.5;entryY=0;entryDx=0;entryDy=0;endArrow=none;startFill=0;" parent="1" source="PAzl1V93zPWZ2kn87MjU-2" target="PAzl1V93zPWZ2kn87MjU-5" edge="1">
          <mxGeometry relative="1" as="geometry">
            <Array as="points">
              <mxPoint x="88" y="440" />
            </Array>
          </mxGeometry>
        </mxCell>
        <mxCell id="PAzl1V93zPWZ2kn87MjU-2" value="&lt;div style=&quot;line-height: 130%;&quot;&gt;ASOCIAȚIE&lt;div&gt;id_asociație#&lt;/div&gt;&lt;div&gt;nume&lt;/div&gt;&lt;div&gt;id_țară&lt;/div&gt;&lt;/div&gt;" style="rounded=0;whiteSpace=wrap;html=1;fontFamily=Georgia;align=left;fontSize=13;spacingLeft=4;spacingBottom=4;" parent="1" vertex="1">
          <mxGeometry x="20" y="185.12" width="135" height="89.75" as="geometry" />
        </mxCell>
        <mxCell id="PAzl1V93zPWZ2kn87MjU-19" style="edgeStyle=orthogonalEdgeStyle;rounded=0;orthogonalLoop=1;jettySize=auto;html=1;endArrow=none;startFill=0;" parent="1" source="PAzl1V93zPWZ2kn87MjU-3" target="PAzl1V93zPWZ2kn87MjU-4" edge="1">
          <mxGeometry relative="1" as="geometry" />
        </mxCell>
        <mxCell id="PAzl1V93zPWZ2kn87MjU-3" value="&lt;font style=&quot;font-size: 13px;&quot;&gt;NAȚIONALĂ&lt;/font&gt;&lt;div style=&quot;line-height: 130%;&quot;&gt;&lt;font style=&quot;font-size: 13px;&quot;&gt;id_națională#&lt;/font&gt;&lt;/div&gt;&lt;div style=&quot;line-height: 130%;&quot;&gt;&lt;font style=&quot;font-size: 13px;&quot;&gt;id_ediție_euro&lt;/font&gt;&lt;/div&gt;&lt;div style=&quot;line-height: 130%;&quot;&gt;&lt;font style=&quot;font-size: 13px;&quot;&gt;id_țară&lt;/font&gt;&lt;/div&gt;&lt;div style=&quot;line-height: 130%;&quot;&gt;&lt;font style=&quot;font-size: 13px;&quot;&gt;nume&lt;/font&gt;&lt;/div&gt;&lt;div style=&quot;line-height: 130%;&quot;&gt;&lt;font style=&quot;font-size: 13px;&quot;&gt;selecționer&lt;/font&gt;&lt;/div&gt;" style="rounded=0;whiteSpace=wrap;html=1;spacingLeft=4;spacingBottom=4;align=left;fontFamily=Georgia;" parent="1" vertex="1">
          <mxGeometry x="310" y="10" width="140" height="110" as="geometry" />
        </mxCell>
        <mxCell id="PAzl1V93zPWZ2kn87MjU-4" value="&lt;div style=&quot;line-height: 130%;&quot;&gt;ȚARĂ&lt;div&gt;id_țară#&lt;/div&gt;&lt;div&gt;nume&lt;/div&gt;&lt;/div&gt;" style="rounded=0;whiteSpace=wrap;html=1;fontFamily=Georgia;align=left;spacingLeft=4;spacingBottom=4;fontSize=13;" parent="1" vertex="1">
          <mxGeometry x="312" y="240" width="136" height="86" as="geometry" />
        </mxCell>
        <mxCell id="PAzl1V93zPWZ2kn87MjU-23" style="edgeStyle=orthogonalEdgeStyle;rounded=0;orthogonalLoop=1;jettySize=auto;html=1;exitX=0.5;exitY=1;exitDx=0;exitDy=0;endArrow=none;startFill=0;" parent="1" source="PAzl1V93zPWZ2kn87MjU-5" target="PAzl1V93zPWZ2kn87MjU-11" edge="1">
          <mxGeometry relative="1" as="geometry" />
        </mxCell>
        <mxCell id="PAzl1V93zPWZ2kn87MjU-58" style="edgeStyle=orthogonalEdgeStyle;rounded=0;orthogonalLoop=1;jettySize=auto;html=1;exitX=1;exitY=0.25;exitDx=0;exitDy=0;entryX=0.5;entryY=1;entryDx=0;entryDy=0;endArrow=none;startFill=0;" parent="1" source="PAzl1V93zPWZ2kn87MjU-5" target="PAzl1V93zPWZ2kn87MjU-4" edge="1">
          <mxGeometry relative="1" as="geometry" />
        </mxCell>
        <mxCell id="PAzl1V93zPWZ2kn87MjU-5" value="CAMPIONAT_INTERN&lt;div&gt;id_campionat#&lt;/div&gt;&lt;div&gt;id_asociație&lt;/div&gt;&lt;div&gt;id_țară&lt;/div&gt;&lt;div&gt;nume&lt;/div&gt;&lt;div&gt;dată_început&lt;/div&gt;&lt;div&gt;dată_sfârșit&lt;/div&gt;&lt;div&gt;format_desfășurare&lt;/div&gt;" style="rounded=0;whiteSpace=wrap;html=1;align=left;fontSize=13;fontFamily=Georgia;spacingLeft=4;spacingBottom=4;" parent="1" vertex="1">
          <mxGeometry x="20" y="385" width="145" height="135" as="geometry" />
        </mxCell>
        <mxCell id="PAzl1V93zPWZ2kn87MjU-6" value="MECI&lt;div&gt;id_meci#&lt;/div&gt;&lt;div&gt;id_stadion&lt;/div&gt;&lt;div&gt;&lt;br&gt;&lt;/div&gt;&lt;div&gt;&lt;br&gt;&lt;/div&gt;&lt;div&gt;&lt;br&gt;&lt;/div&gt;&lt;div&gt;&lt;br&gt;&lt;/div&gt;&lt;div&gt;&lt;br&gt;&lt;/div&gt;&lt;div&gt;&lt;br&gt;&lt;/div&gt;&lt;div&gt;&lt;br&gt;&lt;/div&gt;&lt;div&gt;&lt;br&gt;&lt;/div&gt;&lt;div&gt;&lt;br&gt;&lt;/div&gt;&lt;div&gt;&lt;br&gt;&lt;/div&gt;" style="rounded=0;whiteSpace=wrap;html=1;align=left;fontFamily=Georgia;fontSize=13;spacingLeft=4;spacingBottom=4;" parent="1" vertex="1">
          <mxGeometry x="980" y="595" width="175" height="220" as="geometry" />
        </mxCell>
        <mxCell id="vVw3Jej1Gev_GKbFquha-10" style="edgeStyle=orthogonalEdgeStyle;rounded=0;orthogonalLoop=1;jettySize=auto;html=1;exitX=0.25;exitY=0;exitDx=0;exitDy=0;entryX=0;entryY=0.75;entryDx=0;entryDy=0;endArrow=none;startFill=0;" parent="1" source="PAzl1V93zPWZ2kn87MjU-7" target="PAzl1V93zPWZ2kn87MjU-12" edge="1">
          <mxGeometry relative="1" as="geometry" />
        </mxCell>
        <mxCell id="NTjwlxo6SupNAEZE19sU-3" style="edgeStyle=orthogonalEdgeStyle;rounded=0;orthogonalLoop=1;jettySize=auto;html=1;exitX=0.75;exitY=0;exitDx=0;exitDy=0;entryX=0.25;entryY=1;entryDx=0;entryDy=0;endArrow=none;startFill=0;" parent="1" source="PAzl1V93zPWZ2kn87MjU-7" target="PAzl1V93zPWZ2kn87MjU-8" edge="1">
          <mxGeometry relative="1" as="geometry">
            <Array as="points">
              <mxPoint x="640" y="260" />
              <mxPoint x="995" y="260" />
              <mxPoint x="995" y="160" />
            </Array>
          </mxGeometry>
        </mxCell>
        <mxCell id="e784b_Fykw6awiZgi49o-1" style="edgeStyle=orthogonalEdgeStyle;rounded=0;orthogonalLoop=1;jettySize=auto;html=1;exitX=0.25;exitY=1;exitDx=0;exitDy=0;entryX=0.5;entryY=0;entryDx=0;entryDy=0;endArrow=none;startFill=0;" edge="1" parent="1" source="PAzl1V93zPWZ2kn87MjU-7" target="PAzl1V93zPWZ2kn87MjU-13">
          <mxGeometry relative="1" as="geometry" />
        </mxCell>
        <mxCell id="e784b_Fykw6awiZgi49o-4" style="edgeStyle=orthogonalEdgeStyle;rounded=0;orthogonalLoop=1;jettySize=auto;html=1;exitX=0.75;exitY=1;exitDx=0;exitDy=0;endArrow=none;startFill=0;" edge="1" parent="1" source="PAzl1V93zPWZ2kn87MjU-7" target="PAzl1V93zPWZ2kn87MjU-9">
          <mxGeometry relative="1" as="geometry">
            <Array as="points">
              <mxPoint x="625" y="590" />
              <mxPoint x="705" y="590" />
            </Array>
          </mxGeometry>
        </mxCell>
        <mxCell id="e784b_Fykw6awiZgi49o-10" style="edgeStyle=orthogonalEdgeStyle;rounded=0;orthogonalLoop=1;jettySize=auto;html=1;exitX=1;exitY=0.25;exitDx=0;exitDy=0;entryX=0;entryY=0.75;entryDx=0;entryDy=0;endArrow=none;startFill=0;" edge="1" parent="1" source="PAzl1V93zPWZ2kn87MjU-7" target="PAzl1V93zPWZ2kn87MjU-10">
          <mxGeometry relative="1" as="geometry">
            <Array as="points">
              <mxPoint x="835" y="393" />
            </Array>
          </mxGeometry>
        </mxCell>
        <mxCell id="e784b_Fykw6awiZgi49o-12" style="edgeStyle=orthogonalEdgeStyle;rounded=0;orthogonalLoop=1;jettySize=auto;html=1;exitX=1;exitY=0.75;exitDx=0;exitDy=0;entryX=0.25;entryY=0;entryDx=0;entryDy=0;endArrow=none;startFill=0;" edge="1" parent="1" source="PAzl1V93zPWZ2kn87MjU-7" target="PAzl1V93zPWZ2kn87MjU-6">
          <mxGeometry relative="1" as="geometry">
            <Array as="points">
              <mxPoint x="660" y="480" />
              <mxPoint x="1024" y="480" />
            </Array>
          </mxGeometry>
        </mxCell>
        <mxCell id="PAzl1V93zPWZ2kn87MjU-7" value="&lt;div style=&quot;line-height: 130%;&quot;&gt;ECHIPĂ&lt;div&gt;id_echipă#&lt;/div&gt;&lt;div&gt;id_campionat&lt;/div&gt;&lt;div&gt;id_competiție&lt;/div&gt;&lt;div&gt;id_stadion&lt;/div&gt;&lt;div&gt;nume&lt;/div&gt;&lt;div&gt;&lt;/div&gt;&lt;/div&gt;" style="rounded=0;whiteSpace=wrap;html=1;fontSize=13;spacingLeft=4;spacingBottom=4;fontFamily=Georgia;align=left;" parent="1" vertex="1">
          <mxGeometry x="520" y="356" width="140" height="146" as="geometry" />
        </mxCell>
        <mxCell id="NTjwlxo6SupNAEZE19sU-12" style="edgeStyle=orthogonalEdgeStyle;rounded=0;orthogonalLoop=1;jettySize=auto;html=1;exitX=0.75;exitY=1;exitDx=0;exitDy=0;entryX=0.75;entryY=0;entryDx=0;entryDy=0;endArrow=none;startFill=0;" parent="1" source="PAzl1V93zPWZ2kn87MjU-8" target="NTjwlxo6SupNAEZE19sU-11" edge="1">
          <mxGeometry relative="1" as="geometry">
            <Array as="points">
              <mxPoint x="1119" y="160" />
            </Array>
          </mxGeometry>
        </mxCell>
        <mxCell id="PAzl1V93zPWZ2kn87MjU-8" value="&lt;div style=&quot;line-height: 130%;&quot;&gt;COMPEIȚIE_EUROPEANĂ_CLUB&lt;div&gt;id_competiție#&lt;/div&gt;&lt;div&gt;nume_competiție&lt;/div&gt;&lt;div&gt;număr_echipe&lt;/div&gt;&lt;div&gt;dată_început&lt;/div&gt;&lt;div&gt;dată_final&lt;/div&gt;&lt;div&gt;&lt;/div&gt;&lt;/div&gt;" style="rounded=0;whiteSpace=wrap;html=1;align=left;fontFamily=Georgia;fontSize=13;spacingLeft=4;spacingBottom=4;" parent="1" vertex="1">
          <mxGeometry x="930" y="10" width="225" height="150" as="geometry" />
        </mxCell>
        <mxCell id="PAzl1V93zPWZ2kn87MjU-9" value="STADION&lt;div&gt;id_stadion#&lt;/div&gt;&lt;div&gt;nume&lt;/div&gt;&lt;div&gt;oraș&lt;/div&gt;&lt;div&gt;capacitate&lt;/div&gt;" style="rounded=0;whiteSpace=wrap;html=1;fontFamily=Georgia;align=left;fontSize=13;spacingLeft=4;spacingBottom=4;" parent="1" vertex="1">
          <mxGeometry x="625" y="661.5" width="130" height="100" as="geometry" />
        </mxCell>
        <mxCell id="PAzl1V93zPWZ2kn87MjU-13" value="SPONSOR&lt;div&gt;id_sponsor#&lt;/div&gt;&lt;div&gt;nume&lt;/div&gt;" style="rounded=0;whiteSpace=wrap;html=1;fontFamily=Georgia;align=left;fontSize=13;spacingLeft=4;spacingBottom=4;" parent="1" vertex="1">
          <mxGeometry x="302.5" y="675" width="125" height="86.5" as="geometry" />
        </mxCell>
        <mxCell id="PAzl1V93zPWZ2kn87MjU-11" value="ETAPĂ_CAMPIONAT&lt;div&gt;id_etapă_campionat#&lt;/div&gt;&lt;div&gt;id_campionat&lt;/div&gt;&lt;div&gt;număr_etapă&lt;/div&gt;&lt;div&gt;dată_început&lt;/div&gt;&lt;div&gt;dată_sfârșit&lt;/div&gt;" style="rounded=0;whiteSpace=wrap;html=1;fontFamily=Georgia;align=left;fontSize=13;spacingLeft=4;spacingBottom=4;" parent="1" vertex="1">
          <mxGeometry x="20" y="690" width="145" height="125" as="geometry" />
        </mxCell>
        <mxCell id="PAzl1V93zPWZ2kn87MjU-55" value="participă" style="text;html=1;align=center;verticalAlign=middle;resizable=0;points=[];autosize=1;strokeColor=none;fillColor=none;" parent="1" vertex="1">
          <mxGeometry x="215" y="35" width="65" height="30" as="geometry" />
        </mxCell>
        <mxCell id="PAzl1V93zPWZ2kn87MjU-56" value="reprezintă" style="text;html=1;align=center;verticalAlign=middle;resizable=0;points=[];autosize=1;strokeColor=none;fillColor=none;" parent="1" vertex="1">
          <mxGeometry x="305" y="167.5" width="75" height="30" as="geometry" />
        </mxCell>
        <mxCell id="j2AyH8atPz4dwwITeyBw-1" value="administrează" style="text;html=1;align=center;verticalAlign=middle;resizable=0;points=[];autosize=1;strokeColor=none;fillColor=none;" parent="1" vertex="1">
          <mxGeometry x="85" y="320" width="95" height="30" as="geometry" />
        </mxCell>
        <mxCell id="vVw3Jej1Gev_GKbFquha-1" value="găzduiește" style="text;html=1;align=center;verticalAlign=middle;resizable=0;points=[];autosize=1;strokeColor=none;fillColor=none;" parent="1" vertex="1">
          <mxGeometry x="253" y="390" width="80" height="30" as="geometry" />
        </mxCell>
        <mxCell id="vVw3Jej1Gev_GKbFquha-2" value="participă" style="text;html=1;align=center;verticalAlign=middle;resizable=0;points=[];autosize=1;strokeColor=none;fillColor=none;" parent="1" vertex="1">
          <mxGeometry x="310" y="470" width="65" height="30" as="geometry" />
        </mxCell>
        <mxCell id="vVw3Jej1Gev_GKbFquha-4" value="se_desfășoară" style="text;html=1;align=center;verticalAlign=middle;resizable=0;points=[];autosize=1;strokeColor=none;fillColor=none;" parent="1" vertex="1">
          <mxGeometry x="90" y="595" width="100" height="30" as="geometry" />
        </mxCell>
        <mxCell id="vVw3Jej1Gev_GKbFquha-5" value="conține" style="text;html=1;align=center;verticalAlign=middle;resizable=0;points=[];autosize=1;strokeColor=none;fillColor=none;" parent="1" vertex="1">
          <mxGeometry x="492.5" y="765" width="60" height="30" as="geometry" />
        </mxCell>
        <mxCell id="vVw3Jej1Gev_GKbFquha-6" value="aparține" style="text;html=1;align=center;verticalAlign=middle;resizable=0;points=[];autosize=1;strokeColor=none;fillColor=none;" parent="1" vertex="1">
          <mxGeometry x="490" y="180" width="65" height="30" as="geometry" />
        </mxCell>
        <mxCell id="vVw3Jej1Gev_GKbFquha-7" value="participă" style="text;html=1;align=center;verticalAlign=middle;resizable=0;points=[];autosize=1;strokeColor=none;fillColor=none;" parent="1" vertex="1">
          <mxGeometry x="780" y="225" width="65" height="30" as="geometry" />
        </mxCell>
        <mxCell id="vVw3Jej1Gev_GKbFquha-8" value="antrenează" style="text;html=1;align=center;verticalAlign=middle;resizable=0;points=[];autosize=1;strokeColor=none;fillColor=none;" parent="1" vertex="1">
          <mxGeometry x="707.5" y="360" width="80" height="30" as="geometry" />
        </mxCell>
        <mxCell id="vVw3Jej1Gev_GKbFquha-9" value="sponsorizează" style="text;html=1;align=center;verticalAlign=middle;resizable=0;points=[];autosize=1;strokeColor=none;fillColor=none;" parent="1" vertex="1">
          <mxGeometry x="405" y="560" width="100" height="30" as="geometry" />
        </mxCell>
        <mxCell id="vVw3Jej1Gev_GKbFquha-12" value="convoacă" style="text;html=1;align=center;verticalAlign=middle;resizable=0;points=[];autosize=1;strokeColor=none;fillColor=none;" parent="1" vertex="1">
          <mxGeometry x="530" y="35" width="70" height="30" as="geometry" />
        </mxCell>
        <mxCell id="vVw3Jej1Gev_GKbFquha-13" value="include" style="text;html=1;align=center;verticalAlign=middle;resizable=0;points=[];autosize=1;strokeColor=none;fillColor=none;" parent="1" vertex="1">
          <mxGeometry x="1060" y="220" width="60" height="30" as="geometry" />
        </mxCell>
        <mxCell id="ELMKJhHwUZARZt0iVO1e-1" value="M(1)" style="text;html=1;align=center;verticalAlign=middle;resizable=0;points=[];autosize=1;strokeColor=none;fillColor=none;" parent="1" vertex="1">
          <mxGeometry x="90" y="660" width="45" height="30" as="geometry" />
        </mxCell>
        <mxCell id="ELMKJhHwUZARZt0iVO1e-2" value="1" style="text;html=1;align=center;verticalAlign=middle;resizable=0;points=[];autosize=1;strokeColor=none;fillColor=none;" parent="1" vertex="1">
          <mxGeometry x="90" y="520" width="30" height="30" as="geometry" />
        </mxCell>
        <mxCell id="ELMKJhHwUZARZt0iVO1e-3" value="1" style="text;html=1;align=center;verticalAlign=middle;resizable=0;points=[];autosize=1;strokeColor=none;fillColor=none;" parent="1" vertex="1">
          <mxGeometry x="165" y="765" width="30" height="30" as="geometry" />
        </mxCell>
        <mxCell id="ELMKJhHwUZARZt0iVO1e-4" value="M(1)" style="text;html=1;align=center;verticalAlign=middle;resizable=0;points=[];autosize=1;strokeColor=none;fillColor=none;" parent="1" vertex="1">
          <mxGeometry x="935" y="765" width="45" height="30" as="geometry" />
        </mxCell>
        <mxCell id="ELMKJhHwUZARZt0iVO1e-5" value="M(1)" style="text;html=1;align=center;verticalAlign=middle;resizable=0;points=[];autosize=1;strokeColor=none;fillColor=none;" parent="1" vertex="1">
          <mxGeometry x="1075" y="275" width="45" height="30" as="geometry" />
        </mxCell>
        <mxCell id="ELMKJhHwUZARZt0iVO1e-7" value="1" style="text;html=1;align=center;verticalAlign=middle;resizable=0;points=[];autosize=1;strokeColor=none;fillColor=none;" parent="1" vertex="1">
          <mxGeometry x="1085" y="160" width="30" height="30" as="geometry" />
        </mxCell>
        <mxCell id="ELMKJhHwUZARZt0iVO1e-9" value="M(0)" style="text;html=1;align=center;verticalAlign=middle;resizable=0;points=[];autosize=1;strokeColor=none;fillColor=none;" parent="1" vertex="1">
          <mxGeometry x="510" y="500" width="45" height="30" as="geometry" />
        </mxCell>
        <mxCell id="ELMKJhHwUZARZt0iVO1e-10" value="M(1)" style="text;html=1;align=center;verticalAlign=middle;resizable=0;points=[];autosize=1;strokeColor=none;fillColor=none;" parent="1" vertex="1">
          <mxGeometry x="596" y="325" width="45" height="30" as="geometry" />
        </mxCell>
        <mxCell id="ELMKJhHwUZARZt0iVO1e-12" value="1(0)" style="text;html=1;align=center;verticalAlign=middle;resizable=0;points=[];autosize=1;strokeColor=none;fillColor=none;" parent="1" vertex="1">
          <mxGeometry x="955" y="160" width="40" height="30" as="geometry" />
        </mxCell>
        <mxCell id="ELMKJhHwUZARZt0iVO1e-14" value="1" style="text;html=1;align=center;verticalAlign=middle;resizable=0;points=[];autosize=1;strokeColor=none;fillColor=none;" parent="1" vertex="1">
          <mxGeometry x="660" y="395" width="30" height="30" as="geometry" />
        </mxCell>
        <mxCell id="ELMKJhHwUZARZt0iVO1e-16" value="M(1)" style="text;html=1;align=center;verticalAlign=middle;resizable=0;points=[];autosize=1;strokeColor=none;fillColor=none;" parent="1" vertex="1">
          <mxGeometry x="787.5" y="395" width="45" height="30" as="geometry" />
        </mxCell>
        <mxCell id="ELMKJhHwUZARZt0iVO1e-17" value="1" style="text;html=1;align=center;verticalAlign=middle;resizable=0;points=[];autosize=1;strokeColor=none;fillColor=none;" parent="1" vertex="1">
          <mxGeometry x="165" y="470" width="30" height="30" as="geometry" />
        </mxCell>
        <mxCell id="ELMKJhHwUZARZt0iVO1e-18" value="M(1)" style="text;html=1;align=center;verticalAlign=middle;resizable=0;points=[];autosize=1;strokeColor=none;fillColor=none;" parent="1" vertex="1">
          <mxGeometry x="475" y="440" width="45" height="30" as="geometry" />
        </mxCell>
        <mxCell id="ELMKJhHwUZARZt0iVO1e-19" value="M(1)" style="text;html=1;align=center;verticalAlign=middle;resizable=0;points=[];autosize=1;strokeColor=none;fillColor=none;" parent="1" vertex="1">
          <mxGeometry x="265" y="65" width="45" height="30" as="geometry" />
        </mxCell>
        <mxCell id="ELMKJhHwUZARZt0iVO1e-20" value="1(0)" style="text;html=1;align=center;verticalAlign=middle;resizable=0;points=[];autosize=1;strokeColor=none;fillColor=none;" parent="1" vertex="1">
          <mxGeometry x="185" y="65" width="40" height="30" as="geometry" />
        </mxCell>
        <mxCell id="ELMKJhHwUZARZt0iVO1e-21" value="1(0)" style="text;html=1;align=center;verticalAlign=middle;resizable=0;points=[];autosize=1;strokeColor=none;fillColor=none;" parent="1" vertex="1">
          <mxGeometry x="450" y="65" width="40" height="30" as="geometry" />
        </mxCell>
        <mxCell id="ELMKJhHwUZARZt0iVO1e-22" value="M(1)" style="text;html=1;align=center;verticalAlign=middle;resizable=0;points=[];autosize=1;strokeColor=none;fillColor=none;" parent="1" vertex="1">
          <mxGeometry x="640" y="65" width="45" height="30" as="geometry" />
        </mxCell>
        <mxCell id="ELMKJhHwUZARZt0iVO1e-23" value="1" style="text;html=1;align=center;verticalAlign=middle;resizable=0;points=[];autosize=1;strokeColor=none;fillColor=none;" parent="1" vertex="1">
          <mxGeometry x="530" y="326" width="30" height="30" as="geometry" />
        </mxCell>
        <mxCell id="ELMKJhHwUZARZt0iVO1e-24" value="M(1)" style="text;html=1;align=center;verticalAlign=middle;resizable=0;points=[];autosize=1;strokeColor=none;fillColor=none;" parent="1" vertex="1">
          <mxGeometry x="638" y="120" width="45" height="30" as="geometry" />
        </mxCell>
        <mxCell id="ELMKJhHwUZARZt0iVO1e-25" value="1" style="text;html=1;align=center;verticalAlign=middle;resizable=0;points=[];autosize=1;strokeColor=none;fillColor=none;" parent="1" vertex="1">
          <mxGeometry x="60" y="275" width="30" height="30" as="geometry" />
        </mxCell>
        <mxCell id="ELMKJhHwUZARZt0iVO1e-26" value="1" style="text;html=1;align=center;verticalAlign=middle;resizable=0;points=[];autosize=1;strokeColor=none;fillColor=none;" parent="1" vertex="1">
          <mxGeometry x="60" y="355" width="30" height="30" as="geometry" />
        </mxCell>
        <mxCell id="ELMKJhHwUZARZt0iVO1e-28" value="1" style="text;html=1;align=center;verticalAlign=middle;resizable=0;points=[];autosize=1;strokeColor=none;fillColor=none;" parent="1" vertex="1">
          <mxGeometry x="350" y="326" width="30" height="30" as="geometry" />
        </mxCell>
        <mxCell id="ELMKJhHwUZARZt0iVO1e-29" value="1" style="text;html=1;align=center;verticalAlign=middle;resizable=0;points=[];autosize=1;strokeColor=none;fillColor=none;" parent="1" vertex="1">
          <mxGeometry x="165" y="390" width="30" height="30" as="geometry" />
        </mxCell>
        <mxCell id="ELMKJhHwUZARZt0iVO1e-30" value="1" style="text;html=1;align=center;verticalAlign=middle;resizable=0;points=[];autosize=1;strokeColor=none;fillColor=none;" parent="1" vertex="1">
          <mxGeometry x="380" y="210" width="30" height="30" as="geometry" />
        </mxCell>
        <mxCell id="ELMKJhHwUZARZt0iVO1e-31" value="1" style="text;html=1;align=center;verticalAlign=middle;resizable=0;points=[];autosize=1;strokeColor=none;fillColor=none;" parent="1" vertex="1">
          <mxGeometry x="380" y="120" width="30" height="30" as="geometry" />
        </mxCell>
        <mxCell id="ELMKJhHwUZARZt0iVO1e-32" value="M(0)" style="text;html=1;align=center;verticalAlign=middle;resizable=0;points=[];autosize=1;strokeColor=none;fillColor=none;" parent="1" vertex="1">
          <mxGeometry x="320" y="645" width="45" height="30" as="geometry" />
        </mxCell>
        <mxCell id="nKGe3ViOASolQkf0eaXH-2" value="joacă" style="text;html=1;align=center;verticalAlign=middle;resizable=0;points=[];autosize=1;strokeColor=none;fillColor=none;" parent="1" vertex="1">
          <mxGeometry x="820" y="485" width="50" height="30" as="geometry" />
        </mxCell>
        <mxCell id="nKGe3ViOASolQkf0eaXH-3" value="M(1)" style="text;html=1;align=center;verticalAlign=middle;resizable=0;points=[];autosize=1;strokeColor=none;fillColor=none;" parent="1" vertex="1">
          <mxGeometry x="1075" y="565" width="45" height="30" as="geometry" />
        </mxCell>
        <mxCell id="nKGe3ViOASolQkf0eaXH-5" value="1" style="text;html=1;align=center;verticalAlign=middle;resizable=0;points=[];autosize=1;strokeColor=none;fillColor=none;" parent="1" vertex="1">
          <mxGeometry x="595" y="502" width="30" height="30" as="geometry" />
        </mxCell>
        <mxCell id="nKGe3ViOASolQkf0eaXH-13" value="deține" style="text;html=1;align=center;verticalAlign=middle;resizable=0;points=[];autosize=1;strokeColor=none;fillColor=none;" parent="1" vertex="1">
          <mxGeometry x="633" y="560" width="55" height="30" as="geometry" />
        </mxCell>
        <mxCell id="nKGe3ViOASolQkf0eaXH-15" value="1" style="text;html=1;align=center;verticalAlign=middle;resizable=0;points=[];autosize=1;strokeColor=none;fillColor=none;" parent="1" vertex="1">
          <mxGeometry x="1085" y="425" width="30" height="30" as="geometry" />
        </mxCell>
        <mxCell id="nKGe3ViOASolQkf0eaXH-16" value="1(0)" style="text;html=1;align=center;verticalAlign=middle;resizable=0;points=[];autosize=1;strokeColor=none;fillColor=none;" parent="1" vertex="1">
          <mxGeometry x="665" y="631.5" width="40" height="30" as="geometry" />
        </mxCell>
        <mxCell id="nKGe3ViOASolQkf0eaXH-19" value="se_desfășoară" style="text;html=1;align=center;verticalAlign=middle;resizable=0;points=[];autosize=1;strokeColor=none;fillColor=none;" parent="1" vertex="1">
          <mxGeometry x="810" y="710" width="100" height="30" as="geometry" />
        </mxCell>
        <mxCell id="nKGe3ViOASolQkf0eaXH-20" value="1" style="text;html=1;align=center;verticalAlign=middle;resizable=0;points=[];autosize=1;strokeColor=none;fillColor=none;" parent="1" vertex="1">
          <mxGeometry x="750" y="680" width="30" height="30" as="geometry" />
        </mxCell>
        <mxCell id="nKGe3ViOASolQkf0eaXH-21" value="M(0)" style="text;html=1;align=center;verticalAlign=middle;resizable=0;points=[];autosize=1;strokeColor=none;fillColor=none;" parent="1" vertex="1">
          <mxGeometry x="935" y="680" width="45" height="30" as="geometry" />
        </mxCell>
        <mxCell id="PAzl1V93zPWZ2kn87MjU-10" value="ANTRENOR&lt;div&gt;id_antrenor#&lt;/div&gt;&lt;div&gt;id_echipă&lt;/div&gt;&lt;div&gt;nume&lt;/div&gt;" style="rounded=0;whiteSpace=wrap;html=1;fontFamily=Georgia;align=left;spacingLeft=4;spacingBottom=4;" parent="1" vertex="1">
          <mxGeometry x="835" y="335" width="115" height="85" as="geometry" />
        </mxCell>
        <mxCell id="NTjwlxo6SupNAEZE19sU-10" style="edgeStyle=orthogonalEdgeStyle;rounded=0;orthogonalLoop=1;jettySize=auto;html=1;exitX=1;exitY=0.5;exitDx=0;exitDy=0;entryX=0.031;entryY=0.367;entryDx=0;entryDy=0;entryPerimeter=0;endArrow=none;startFill=0;" parent="1" source="PAzl1V93zPWZ2kn87MjU-3" target="PAzl1V93zPWZ2kn87MjU-12" edge="1">
          <mxGeometry relative="1" as="geometry" />
        </mxCell>
        <mxCell id="PAzl1V93zPWZ2kn87MjU-12" value="JUCĂTOR&lt;div&gt;id_jucător#&lt;/div&gt;&lt;div&gt;id_echipă&lt;/div&gt;&lt;div&gt;id_națională&lt;/div&gt;&lt;div&gt;nume&lt;/div&gt;&lt;div&gt;naționalitate&lt;/div&gt;&lt;div&gt;număr_tricou&lt;/div&gt;&lt;div style=&quot;line-height: 130%;&quot;&gt;poziție&lt;/div&gt;" style="rounded=0;whiteSpace=wrap;html=1;fontFamily=Georgia;align=left;fontSize=13;spacingLeft=4;spacingBottom=4;" parent="1" vertex="1">
          <mxGeometry x="685" y="10" width="160" height="150" as="geometry" />
        </mxCell>
        <mxCell id="e784b_Fykw6awiZgi49o-6" style="edgeStyle=orthogonalEdgeStyle;rounded=0;orthogonalLoop=1;jettySize=auto;html=1;exitX=0.75;exitY=1;exitDx=0;exitDy=0;endArrow=none;startFill=0;" edge="1" parent="1" source="NTjwlxo6SupNAEZE19sU-11">
          <mxGeometry relative="1" as="geometry">
            <mxPoint x="1119" y="595" as="targetPoint" />
          </mxGeometry>
        </mxCell>
        <mxCell id="NTjwlxo6SupNAEZE19sU-11" value="FAZĂ_COMPETIȚIE&lt;div&gt;id_fază_competiție#&lt;/div&gt;&lt;div&gt;id_competiție&lt;/div&gt;&lt;div&gt;nume_fază&lt;/div&gt;&lt;div&gt;dată_început&lt;/div&gt;&lt;div&gt;dată_sfârșit&lt;/div&gt;" style="rounded=0;whiteSpace=wrap;html=1;fontFamily=Georgia;align=left;fontSize=13;spacingLeft=4;spacingBottom=4;" parent="1" vertex="1">
          <mxGeometry x="1010" y="305" width="145" height="120" as="geometry" />
        </mxCell>
        <mxCell id="NTjwlxo6SupNAEZE19sU-32" value="conține" style="text;html=1;align=center;verticalAlign=middle;resizable=0;points=[];autosize=1;strokeColor=none;fillColor=none;" parent="1" vertex="1">
          <mxGeometry x="1060" y="490" width="60" height="30" as="geometry" />
        </mxCell>
        <mxCell id="NTjwlxo6SupNAEZE19sU-33" value="1" style="text;html=1;align=center;verticalAlign=middle;resizable=0;points=[];autosize=1;strokeColor=none;fillColor=none;" parent="1" vertex="1">
          <mxGeometry x="660" y="450" width="30" height="30" as="geometry" />
        </mxCell>
        <mxCell id="NTjwlxo6SupNAEZE19sU-34" value="M(1)" style="text;html=1;align=center;verticalAlign=middle;resizable=0;points=[];autosize=1;strokeColor=none;fillColor=none;" parent="1" vertex="1">
          <mxGeometry x="980" y="565" width="45" height="30" as="geometry" />
        </mxCell>
        <mxCell id="e784b_Fykw6awiZgi49o-9" style="edgeStyle=orthogonalEdgeStyle;rounded=0;orthogonalLoop=1;jettySize=auto;html=1;exitX=1;exitY=0.75;exitDx=0;exitDy=0;entryX=0;entryY=0.909;entryDx=0;entryDy=0;entryPerimeter=0;endArrow=none;startFill=0;" edge="1" parent="1" source="PAzl1V93zPWZ2kn87MjU-11" target="PAzl1V93zPWZ2kn87MjU-6">
          <mxGeometry relative="1" as="geometry">
            <Array as="points">
              <mxPoint x="165" y="795" />
            </Array>
          </mxGeometry>
        </mxCell>
        <mxCell id="e784b_Fykw6awiZgi49o-14" value="&lt;div style=&quot;line-height: 130%;&quot;&gt;MECI_INTERN&lt;/div&gt;&lt;div style=&quot;line-height: 130%;&quot;&gt;id_etapă&lt;/div&gt;" style="rounded=0;whiteSpace=wrap;html=1;fontFamily=Georgia;align=left;spacingLeft=4;spacingBottom=4;fontSize=13;" vertex="1" parent="1">
          <mxGeometry x="1033.5" y="670" width="113" height="46" as="geometry" />
        </mxCell>
        <mxCell id="e784b_Fykw6awiZgi49o-15" value="&lt;div style=&quot;line-height: 130%;&quot;&gt;MECI_EURO&lt;/div&gt;&lt;div style=&quot;line-height: 130%;&quot;&gt;id_fază_competiție&lt;/div&gt;" style="rounded=0;whiteSpace=wrap;html=1;fontFamily=Georgia;align=left;spacingLeft=4;spacingBottom=4;fontSize=13;" vertex="1" parent="1">
          <mxGeometry x="1033.5" y="745.5" width="113" height="46" as="geometry" />
        </mxCell>
        <mxCell id="e784b_Fykw6awiZgi49o-18" value="" style="endArrow=none;html=1;rounded=0;" edge="1" parent="1">
          <mxGeometry width="50" height="50" relative="1" as="geometry">
            <mxPoint x="981" y="692.5" as="sourcePoint" />
            <mxPoint x="1033.5" y="692.5" as="targetPoint" />
          </mxGeometry>
        </mxCell>
        <mxCell id="e784b_Fykw6awiZgi49o-19" value="" style="endArrow=none;html=1;rounded=0;" edge="1" parent="1">
          <mxGeometry width="50" height="50" relative="1" as="geometry">
            <mxPoint x="981" y="765" as="sourcePoint" />
            <mxPoint x="1033.5" y="765" as="targetPoint" />
          </mxGeometry>
        </mxCell>
        <mxCell id="e784b_Fykw6awiZgi49o-20" value="&lt;font style=&quot;font-size: 10px;&quot;&gt;ISA&lt;/font&gt;" style="text;html=1;align=center;verticalAlign=middle;resizable=0;points=[];autosize=1;strokeColor=none;fillColor=none;" vertex="1" parent="1">
          <mxGeometry x="990" y="665" width="35" height="30" as="geometry" />
        </mxCell>
        <mxCell id="e784b_Fykw6awiZgi49o-21" value="&lt;font style=&quot;font-size: 10px;&quot;&gt;ISA&lt;/font&gt;" style="text;html=1;align=center;verticalAlign=middle;resizable=0;points=[];autosize=1;strokeColor=none;fillColor=none;" vertex="1" parent="1">
          <mxGeometry x="990" y="735" width="35" height="30" as="geometry" />
        </mxCell>
      </root>
    </mxGraphModel>
  </diagram>
</mxfile>
